<svg data-v-68c20dad="" version="1.0" xmlns="http://www.w3.org/2000/svg" width="100%" height="100%"
     viewBox="0 0 340.000000 250.000000" preserveAspectRatio="xMidYMid meet" color-interpolation-filters="sRGB"
     class="el-tooltip" style="margin: auto;">
  <g data-v-68c20dad="" fill="#5dc2d0" transform="translate(53.151458740234375,106.29972267150879)">
    <g transform="translate(0,1.8901329040527344)">
      <rect fill="#5dc2d0" fill-opacity="0" x="0" y="0" width="60" height="33.615087960272"></rect>
      <svg x="0" y="0" width="60" height="33.615087960272">
        <svg xmlns="http://www.w3.org/2000/svg" viewBox="0 0 378.58 212.1">
          <g>
            <g fill-rule="evenodd">
              <path
                d="M226.12 8.43a110.6 110.6 0 0 1 11 5.29l.28.16.37.21.49.28.09.05.37.21.33.19.37.21.13.08.5.29.1.06.36.22.32.19.36.22.11.07.42.25.57.35.23.14.63.4.3.19.54.35.32.21.56.37.23.15.35.24.35.24.27.19.08.05.35.24.33.23.57.4.13.09.15.11.57.41.2.14.63.46.13.09.11.08.23.17a111.69 111.69 0 0 1 32.87 38.73 77 77 0 1 1 19 151.57H107.06l51.44-139.6H187l-41.7 113.25h156.3a50.53 50.53 0 1 0-12.5-99.51l-20.43 5.2-9.62-18.75a85 85 0 0 0-19-24.6l-45.3 123h-28.51z"
                fill="#5dc2d0"></path>
              <path
                d="M65.87 212.07h-.11l-1.45-.07h-.45l-1.21-.08A67.56 67.56 0 1 1 77.54 77.71a111.31 111.31 0 0 1 134.75-74l-9.19 25a84.79 84.79 0 0 0-100.34 56.95L96 107.16l-22.3-3.3a41.62 41.62 0 0 0-6.11-.45 41.12 41.12 0 1 0 0 82.25h4.75l21.76-59.08h28.51L91.09 212.1H67.56z"
                fill="#abcd03"></path>
            </g>
          </g>
        </svg>
      </svg> <!---->
    </g>
    <g transform="translate(67.0048599243164,0)">
      <g transform="translate(0,0)">
        <g>
          <path transform="translate(-2.1677852348993,21.44966442953)"
                d="M2.17-20.88L5.02-20.88L5.02-2.51L15.63-2.51L15.63 0L2.17 0L2.17-20.88ZM17.23-7.64L17.23-7.64L17.23-7.64Q17.68-15.40 24.30-15.74L24.30-15.74L24.30-15.74Q30.92-15.40 31.38-7.64L31.38-7.64L31.38-7.64Q30.92 0 24.30 0.23L24.30 0.23L24.30 0.23Q17.68 0 17.23-7.64ZM19.85-7.64L19.85-7.64L19.85-7.64Q20.19-1.94 24.30-1.83L24.30-1.83L24.30-1.83Q28.41-1.94 28.75-7.64L28.75-7.64L28.75-7.64Q28.41-13.35 24.30-13.46L24.30-13.46L24.30-13.46Q20.19-13.35 19.85-7.64ZM39.48-2.74L39.59-2.74L43.93-15.29L46.66-15.29L40.96 0L38.22 0L32.63-15.29L35.60-15.29L39.48-2.74ZM59.33-4.79L59.33-4.79L61.84-4.79L61.84-4.79Q61.38-2.17 59.10-0.57L59.10-0.57L59.10-0.57Q57.85 0.23 54.99 0.23L54.99 0.23L54.99 0.23Q48.49 0 48.15-7.19L48.15-7.19L48.15-7.19Q48.38-15.52 55.45-15.74L55.45-15.74L55.45-15.74Q61.95-15.63 62.07-6.73L62.07-6.73L50.89-6.73L50.89-6.73Q50.89-1.71 55.34-1.71L55.34-1.71L55.34-1.71Q58.53-1.94 59.33-4.79ZM50.89-8.79L50.89-8.79L59.44-8.79L59.44-8.79Q59.10-13.35 55.11-13.35L55.11-13.35L55.11-13.35Q51.34-13.01 50.89-8.79ZM77.81-12.89L77.81-12.89L77.81-12.89Q80.32-12.66 80.55-10.15L80.55-10.15L80.55-10.15Q80.32-7.76 77.81-7.53L77.81-7.53L77.81-7.53Q75.30-7.76 75.07-10.15L75.07-10.15L75.07-10.15Q75.30-12.66 77.81-12.89ZM109.87-14.83L109.87-14.83L107.25-14.83L107.25-14.83Q107.02-18.83 102-19.05L102-19.05L102-19.05Q97.32-18.94 97.32-15.40L97.32-15.40L97.32-15.40Q97.32-13.12 99.83-12.78L99.83-12.78L105.77-11.41L105.77-11.41Q110.44-10.27 110.44-5.70L110.44-5.70L110.44-5.70Q110.33 0.11 102.23 0.34L102.23 0.34L102.23 0.34Q97.78 0.34 95.95-1.48L95.95-1.48L95.95-1.48Q93.67-3.19 93.79-6.73L93.79-6.73L96.52-6.73L96.52-6.73Q96.64-1.94 102.23-1.83L102.23-1.83L102.23-1.83Q107.70-1.94 107.82-5.36L107.82-5.36L107.82-5.36Q108.28-8.21 103.26-9.13L103.26-9.13L98.92-10.04L98.92-10.04Q94.47-11.30 94.47-15.06L94.47-15.06L94.47-15.06Q94.81-21.22 101.77-21.45L101.77-21.45L101.77-21.45Q109.64-21.45 109.87-14.83ZM126.07-10.38L126.07-10.38L126.07 0L123.56 0L123.56-9.93L123.56-9.93Q123.68-13.46 120.48-13.35L120.48-13.35L120.48-13.35Q116.38-13.23 116.26-8.33L116.26-8.33L116.26 0L113.64 0L113.64-20.88L116.26-20.88L116.26-13.23L116.38-13.23L116.38-13.23Q118.20-15.74 120.83-15.74L120.83-15.74L120.83-15.74Q125.96-15.63 126.07-10.38ZM132.23-10.61L132.23-10.61L129.84-10.61L129.84-10.61Q129.95-15.74 136.11-15.74L136.11-15.74L136.11-15.74Q141.59-15.52 141.70-11.41L141.70-11.41L141.70-2.62L141.70-2.62Q141.70-1.71 142.62-1.71L142.62-1.71L142.62-1.71Q142.73-1.71 142.96-1.71L142.96-1.71L142.96-1.71Q143.30-1.83 143.53-1.83L143.53-1.83L143.53 0L143.53 0Q143.30 0 142.96 0L142.96 0L142.96 0Q142.39 0.11 142.05 0.11L142.05 0.11L142.05 0.11Q139.31 0.11 139.42-2.05L139.42-2.05L139.42-2.05Q137.14 0.23 133.83 0.23L133.83 0.23L133.83 0.23Q129.27 0 129.04-3.99L129.04-3.99L129.04-3.99Q129.15-8.10 133.72-8.79L133.72-8.79L137.94-9.24L137.94-9.24Q139.31-9.47 139.31-11.07L139.31-11.07L139.31-11.07Q139.31-13.58 135.66-13.58L135.66-13.58L135.66-13.58Q132.46-13.58 132.23-10.61ZM139.19-5.25L139.19-5.25L139.19-7.76L139.19-7.76Q138.28-7.19 134.97-6.73L134.97-6.73L134.97-6.73Q131.78-6.50 131.78-4.34L131.78-4.34L131.78-4.34Q131.78-1.71 134.40-1.71L134.40-1.71L134.40-1.71Q138.85-2.05 139.19-5.25ZM149.01-8.90L149.01-8.90L149.01 0L146.38 0L146.38-15.29L148.89-15.29L148.89-12.66L148.89-12.66Q150.60-15.74 153.23-15.74L153.23-15.74L153.23-15.74Q153.46-15.74 153.68-15.63L153.68-15.63L153.68-15.63Q153.80-15.63 153.91-15.63L153.91-15.63L153.91-12.89L152.89-12.89L152.89-12.89Q149.23-12.66 149.01-8.90ZM166.12-4.79L166.12-4.79L168.63-4.79L168.63-4.79Q168.17-2.17 165.89-0.57L165.89-0.57L165.89-0.57Q164.64 0.23 161.79 0.23L161.79 0.23L161.79 0.23Q155.28 0 154.94-7.19L154.94-7.19L154.94-7.19Q155.17-15.52 162.24-15.74L162.24-15.74L162.24-15.74Q168.74-15.63 168.86-6.73L168.86-6.73L157.68-6.73L157.68-6.73Q157.68-1.71 162.13-1.71L162.13-1.71L162.13-1.71Q165.32-1.94 166.12-4.79ZM157.68-8.79L157.68-8.79L166.23-8.79L166.23-8.79Q165.89-13.35 161.90-13.35L161.90-13.35L161.90-13.35Q158.13-13.01 157.68-8.79Z"></path>
        </g> <!---->
      </g>
      <g fill="#abcd03" transform="translate(0,28.44771957397461)"><!---->
        <rect x="0" height="1" y="3.9750003814697266" width="48.775001525878906"></rect>
        <rect height="1" y="3.9750003814697266" width="48.775001525878906" x="117.91500091552734"></rect>
        <g transform="translate(51.775001525878906,0)">
          <path transform="translate(-0.890625,8.8125)"
                d="M0.89-8.58L2.06-8.58L2.06-1.03L6.42-1.03L6.42 0L0.89 0L0.89-8.58ZM7.08-3.14L7.08-3.14L7.08-3.14Q7.27-6.33 9.98-6.47L9.98-6.47L9.98-6.47Q12.70-6.33 12.89-3.14L12.89-3.14L12.89-3.14Q12.70 0 9.98 0.09L9.98 0.09L9.98 0.09Q7.27 0 7.08-3.14ZM8.16-3.14L8.16-3.14L8.16-3.14Q8.30-0.80 9.98-0.75L9.98-0.75L9.98-0.75Q11.67-0.80 11.81-3.14L11.81-3.14L11.81-3.14Q11.67-5.48 9.98-5.53L9.98-5.53L9.98-5.53Q8.30-5.48 8.16-3.14ZM16.22-1.13L16.27-1.13L18.05-6.28L19.17-6.28L16.83 0L15.70 0L13.41-6.28L14.63-6.28L16.22-1.13ZM24.38-1.97L24.38-1.97L25.41-1.97L25.41-1.97Q25.22-0.89 24.28-0.23L24.28-0.23L24.28-0.23Q23.77 0.09 22.59 0.09L22.59 0.09L22.59 0.09Q19.92 0 19.78-2.95L19.78-2.95L19.78-2.95Q19.88-6.38 22.78-6.47L22.78-6.47L22.78-6.47Q25.45-6.42 25.50-2.77L25.50-2.77L20.91-2.77L20.91-2.77Q20.91-0.70 22.73-0.70L22.73-0.70L22.73-0.70Q24.05-0.80 24.38-1.97ZM20.91-3.61L20.91-3.61L24.42-3.61L24.42-3.61Q24.28-5.48 22.64-5.48L22.64-5.48L22.64-5.48Q21.09-5.34 20.91-3.61ZM27-1.27L28.27-1.27L28.27 0L27 0L27-1.27ZM39.80-6.09L39.80-6.09L38.72-6.09L38.72-6.09Q38.63-7.73 36.56-7.83L36.56-7.83L36.56-7.83Q34.64-7.78 34.64-6.33L34.64-6.33L34.64-6.33Q34.64-5.39 35.67-5.25L35.67-5.25L38.11-4.69L38.11-4.69Q40.03-4.22 40.03-2.34L40.03-2.34L40.03-2.34Q39.98 0.05 36.66 0.14L36.66 0.14L36.66 0.14Q34.83 0.14 34.08-0.61L34.08-0.61L34.08-0.61Q33.14-1.31 33.19-2.77L33.19-2.77L34.31-2.77L34.31-2.77Q34.36-0.80 36.66-0.75L36.66-0.75L36.66-0.75Q38.91-0.80 38.95-2.20L38.95-2.20L38.95-2.20Q39.14-3.38 37.08-3.75L37.08-3.75L35.30-4.13L35.30-4.13Q33.47-4.64 33.47-6.19L33.47-6.19L33.47-6.19Q33.61-8.72 36.47-8.81L36.47-8.81L36.47-8.81Q39.70-8.81 39.80-6.09ZM46.45-4.27L46.45-4.27L46.45 0L45.42 0L45.42-4.08L45.42-4.08Q45.47-5.53 44.16-5.48L44.16-5.48L44.16-5.48Q42.47-5.44 42.42-3.42L42.42-3.42L42.42 0L41.34 0L41.34-8.58L42.42-8.58L42.42-5.44L42.47-5.44L42.47-5.44Q43.22-6.47 44.30-6.47L44.30-6.47L44.30-6.47Q46.41-6.42 46.45-4.27ZM48.98-4.36L48.98-4.36L48-4.36L48-4.36Q48.05-6.47 50.58-6.47L50.58-6.47L50.58-6.47Q52.83-6.38 52.88-4.69L52.88-4.69L52.88-1.08L52.88-1.08Q52.88-0.70 53.25-0.70L53.25-0.70L53.25-0.70Q53.30-0.70 53.39-0.70L53.39-0.70L53.39-0.70Q53.53-0.75 53.63-0.75L53.63-0.75L53.63 0L53.63 0Q53.53 0 53.39 0L53.39 0L53.39 0Q53.16 0.05 53.02 0.05L53.02 0.05L53.02 0.05Q51.89 0.05 51.94-0.84L51.94-0.84L51.94-0.84Q51 0.09 49.64 0.09L49.64 0.09L49.64 0.09Q47.77 0 47.67-1.64L47.67-1.64L47.67-1.64Q47.72-3.33 49.59-3.61L49.59-3.61L51.33-3.80L51.33-3.80Q51.89-3.89 51.89-4.55L51.89-4.55L51.89-4.55Q51.89-5.58 50.39-5.58L50.39-5.58L50.39-5.58Q49.08-5.58 48.98-4.36ZM51.84-2.16L51.84-2.16L51.84-3.19L51.84-3.19Q51.47-2.95 50.11-2.77L50.11-2.77L50.11-2.77Q48.80-2.67 48.80-1.78L48.80-1.78L48.80-1.78Q48.80-0.70 49.88-0.70L49.88-0.70L49.88-0.70Q51.70-0.84 51.84-2.16ZM55.88-3.66L55.88-3.66L55.88 0L54.80 0L54.80-6.28L55.83-6.28L55.83-5.20L55.83-5.20Q56.53-6.47 57.61-6.47L57.61-6.47L57.61-6.47Q57.70-6.47 57.80-6.42L57.80-6.42L57.80-6.42Q57.84-6.42 57.89-6.42L57.89-6.42L57.89-5.30L57.47-5.30L57.47-5.30Q55.97-5.20 55.88-3.66ZM62.91-1.97L62.91-1.97L63.94-1.97L63.94-1.97Q63.75-0.89 62.81-0.23L62.81-0.23L62.81-0.23Q62.30 0.09 61.13 0.09L61.13 0.09L61.13 0.09Q58.45 0 58.31-2.95L58.31-2.95L58.31-2.95Q58.41-6.38 61.31-6.47L61.31-6.47L61.31-6.47Q63.98-6.42 64.03-2.77L64.03-2.77L59.44-2.77L59.44-2.77Q59.44-0.70 61.27-0.70L61.27-0.70L61.27-0.70Q62.58-0.80 62.91-1.97ZM59.44-3.61L59.44-3.61L62.95-3.61L62.95-3.61Q62.81-5.48 61.17-5.48L61.17-5.48L61.17-5.48Q59.63-5.34 59.44-3.61Z"></path>
        </g>
      </g>
    </g>
  </g>
</svg>
